# This file uses centimeters as units for non-parametric coordinates.

mtllib drvo.mtl
g default
v -2.015514 -0.091282 0.459387
v 2.015514 -0.091282 0.459387
v -2.015514 0.091282 0.459387
v 2.015514 0.091282 0.459387
v -2.015514 0.091282 -0.459387
v 2.015514 0.091282 -0.459387
v -2.015514 -0.091282 -0.459387
v 2.015514 -0.091282 -0.459387
vt 0.009634 0.891447
vt 0.995688 0.132508
vt 0.994533 0.602118
vt 0.057126 0.891447
vt 0.006708 0.612037
vt 0.005795 0.602118
vt 0.994533 0.368672
vt 0.995688 0.612037
vt 0.005795 0.368672
vt 0.005795 0.143314
vt 0.057126 0.665023
vt 0.102118 0.665023
vt 0.009634 0.665023
vt 0.054625 0.665023
vt 0.994533 0.143314
vt 0.102118 0.891447
vt 0.995688 0.656828
vt 0.006708 0.132508
vt 0.006708 0.656828
vt 0.005795 0.376759
vt 0.006708 0.087718
vt 0.994533 0.376759
vt 0.995688 0.087718
vt 0.054625 0.891447
vn 0.000000 0.000000 1.000000
vn 0.000000 0.000000 1.000000
vn 0.000000 0.000000 1.000000
vn 0.000000 0.000000 1.000000
vn 0.000000 1.000000 0.000000
vn 0.000000 1.000000 0.000000
vn 0.000000 1.000000 0.000000
vn 0.000000 1.000000 0.000000
vn 0.000000 0.000000 -1.000000
vn 0.000000 0.000000 -1.000000
vn 0.000000 0.000000 -1.000000
vn 0.000000 0.000000 -1.000000
vn 0.000000 -1.000000 0.000000
vn 0.000000 -1.000000 0.000000
vn 0.000000 -1.000000 0.000000
vn 0.000000 -1.000000 0.000000
vn 1.000000 0.000000 0.000000
vn 1.000000 0.000000 0.000000
vn 1.000000 0.000000 0.000000
vn 1.000000 0.000000 0.000000
vn -1.000000 0.000000 0.000000
vn -1.000000 0.000000 0.000000
vn -1.000000 0.000000 0.000000
vn -1.000000 0.000000 0.000000
s off
g pCube1
usemtl initialShadingGroup
f 1/2/1 2/18/2 4/21/3 3/23/4
f 3/3/5 4/6/6 6/20/7 5/22/8
f 5/5/9 6/8/10 8/17/11 7/19/12
f 7/7/13 8/9/14 2/10/15 1/15/16
f 2/4/17 8/11/18 6/12/19 4/16/20
f 7/1/21 1/13/22 3/14/23 5/24/24
